solid Visualization Toolkit generated SLA File
 facet normal -1 0 0
  outer loop
   vertex 8 0 0
   vertex 8 0 0.10000000149011612
   vertex 8 0.10000000149011612 0
  endloop
 endfacet
 facet normal -1 0 0
  outer loop
   vertex 8 0.10000000149011612 0
   vertex 8 0 0.10000000149011612
   vertex 8 0.10000000149011612 0.10000000149011612
  endloop
 endfacet
 facet normal 1 0 0
  outer loop
   vertex 8.1000003814697266 0 0.10000000149011612
   vertex 8.1000003814697266 0 0
   vertex 8.1000003814697266 0.10000000149011612 0
  endloop
 endfacet
 facet normal 1 0 -0
  outer loop
   vertex 8.1000003814697266 0 0.10000000149011612
   vertex 8.1000003814697266 0.10000000149011612 0
   vertex 8.1000003814697266 0.10000000149011612 0.10000000149011612
  endloop
 endfacet
 facet normal 0 -1 -0
  outer loop
   vertex 8.1000003814697266 0 0
   vertex 8.1000003814697266 0 0.10000000149011612
   vertex 8 0 0
  endloop
 endfacet
 facet normal -0 -1 0
  outer loop
   vertex 8 0 0
   vertex 8.1000003814697266 0 0.10000000149011612
   vertex 8 0 0.10000000149011612
  endloop
 endfacet
 facet normal 0 1 -0
  outer loop
   vertex 8.1000003814697266 0.10000000149011612 0.10000000149011612
   vertex 8.1000003814697266 0.10000000149011612 0
   vertex 8 0.10000000149011612 0
  endloop
 endfacet
 facet normal 0 1 0
  outer loop
   vertex 8.1000003814697266 0.10000000149011612 0.10000000149011612
   vertex 8 0.10000000149011612 0
   vertex 8 0.10000000149011612 0.10000000149011612
  endloop
 endfacet
 facet normal -0 0 -1
  outer loop
   vertex 8 0.10000000149011612 0
   vertex 8.1000003814697266 0.10000000149011612 0
   vertex 8 0 0
  endloop
 endfacet
 facet normal 0 -0 -1
  outer loop
   vertex 8 0 0
   vertex 8.1000003814697266 0.10000000149011612 0
   vertex 8.1000003814697266 0 0
  endloop
 endfacet
 facet normal -0 0 1
  outer loop
   vertex 8.1000003814697266 0.10000000149011612 0.10000000149011612
   vertex 8 0.10000000149011612 0.10000000149011612
   vertex 8 0 0.10000000149011612
  endloop
 endfacet
 facet normal 0 0 1
  outer loop
   vertex 8.1000003814697266 0.10000000149011612 0.10000000149011612
   vertex 8 0 0.10000000149011612
   vertex 8.1000003814697266 0 0.10000000149011612
  endloop
 endfacet
endsolid
