solid building.stl
facet normal 0.0 0.0 -0.00870966
  outer loop
    vertex 0.013470384 -0.06735192 -1e-05
    vertex -0.06735192 0.013470384 -1e-05
    vertex 0.06735192 -0.013470384 -1e-05
  endloop
endfacet
facet normal 0.0 0.0 -0.00870966
  outer loop
    vertex 0.06735192 -0.013470384 -1e-05
    vertex -0.06735192 0.013470384 -1e-05
    vertex -0.013470384 0.06735192 -1e-05
  endloop
endfacet
facet normal -0.036952768 -0.036952768 0.0
  outer loop
    vertex 0.013470384 -0.06735192 -1e-05
    vertex 0.013470384 -0.06735192 0.4572
    vertex -0.06735192 0.013470384 0.4572
  endloop
endfacet
facet normal -0.036952768 -0.036952768 0.0
  outer loop
    vertex 0.013470384 -0.06735192 -1e-05
    vertex -0.06735192 0.013470384 0.4572
    vertex -0.06735192 0.013470384 -1e-05
  endloop
endfacet
facet normal 0.0 -0.0 0.00870966
  outer loop
    vertex 0.013470384 -0.06735192 0.4572
    vertex 0.06735192 -0.013470384 0.4572
    vertex -0.013470384 0.06735192 0.4572
  endloop
endfacet
facet normal 0.0 0.0 0.00870966
  outer loop
    vertex 0.013470384 -0.06735192 0.4572
    vertex -0.013470384 0.06735192 0.4572
    vertex -0.06735192 0.013470384 0.4572
  endloop
endfacet
facet normal 0.036952768 0.036952768 0.0
  outer loop
    vertex 0.06735192 -0.013470384 0.4572
    vertex 0.06735192 -0.013470384 -1e-05
    vertex -0.013470384 0.06735192 -1e-05
  endloop
endfacet
facet normal 0.036952768 0.036952768 0.0
  outer loop
    vertex 0.06735192 -0.013470384 0.4572
    vertex -0.013470384 0.06735192 -1e-05
    vertex -0.013470384 0.06735192 0.4572
  endloop
endfacet
facet normal -0.024635177 0.024635177 0.0
  outer loop
    vertex -0.013470384 0.06735192 -1e-05
    vertex -0.06735192 0.013470384 -1e-05
    vertex -0.013470384 0.06735192 0.4572
  endloop
endfacet
facet normal -0.024635177 0.024635177 0.0
  outer loop
    vertex -0.06735192 0.013470384 -1e-05
    vertex -0.06735192 0.013470384 0.4572
    vertex -0.013470384 0.06735192 0.4572
  endloop
endfacet
facet normal 0.024635177 -0.024635177 0.0
  outer loop
    vertex 0.013470384 -0.06735192 -1e-05
    vertex 0.06735192 -0.013470384 -1e-05
    vertex 0.06735192 -0.013470384 0.4572
  endloop
endfacet
facet normal 0.024635177 -0.024635177 0.0
  outer loop
    vertex 0.013470384 -0.06735192 -1e-05
    vertex 0.06735192 -0.013470384 0.4572
    vertex 0.013470384 -0.06735192 0.4572
  endloop
endfacet
endsolid building.stl
