<svg version="1.1" id="Layer_1" xmlns="http://www.w3.org/2000/svg" xmlns:xlink="http://www.w3.org/1999/xlink" x="0px" y="0px"
	 width="100%" viewBox="0 0 512 512" enable-background="new 0 0 512 512" xml:space="preserve">
<path fill="#FFFFFF" opacity="0.000000" stroke="none" 
	d="
M1.000000,312.000000 
	C1.000000,208.373016 1.000000,104.746017 1.000000,1.059513 
	C171.561646,1.059513 342.123322,1.059513 513.000000,1.059513 
	C513.000000,104.355133 513.000000,207.710587 512.534180,311.476410 
	C509.601776,311.879089 507.134552,311.903870 504.668701,311.857880 
	C495.164917,311.680603 485.661530,311.480743 476.233856,311.004700 
	C477.153076,309.605408 477.996460,308.490723 478.345306,308.029694 
	C465.333008,305.058594 452.299438,302.082611 439.265900,299.106628 
	C439.342621,298.600983 439.419373,298.095337 439.496124,297.589691 
	C449.429443,291.988525 458.014221,284.493317 461.649902,273.786041 
	C465.065277,263.727692 467.770233,253.303116 465.739868,241.937057 
	C464.126953,232.907806 462.743469,224.156357 458.143280,216.087875 
	C453.568237,208.063400 447.270721,202.074799 438.567291,198.966400 
	C432.749847,196.888748 426.737061,195.358246 420.941162,193.164917 
	C421.070679,190.835739 421.070679,188.924515 421.070679,186.585800 
	C391.690735,186.585800 362.945709,186.585800 334.132355,186.585800 
	C334.132355,172.394592 334.132355,158.646286 334.132355,144.392014 
	C360.269135,144.392014 386.138733,144.392014 412.006805,144.392014 
	C412.006805,135.305267 412.006805,126.730515 412.006805,117.608795 
	C385.828400,117.608795 359.949554,117.608795 334.165833,117.608795 
	C334.165833,105.957092 334.165833,94.861557 334.165833,83.409004 
	C362.232697,83.409004 389.996735,83.409004 417.959656,83.409004 
	C417.959656,74.433403 417.959656,65.821365 417.959656,57.004433 
	C379.259857,57.004433 340.727448,57.004433 302.159119,57.004433 
	C302.159119,109.204010 302.159119,161.095413 302.159119,213.360489 
	C308.919067,213.360489 315.383881,213.360489 322.007812,213.781738 
	C322.157806,231.798416 322.148651,249.393814 322.082520,267.420868 
	C322.370605,280.726746 313.797516,287.905853 305.478333,288.934204 
	C295.744110,290.137512 284.264618,283.947327 282.834106,273.009125 
	C282.574066,271.020782 282.222961,269.044342 282.084229,266.612671 
	C282.254608,242.774780 282.254608,219.386597 282.254608,196.034363 
	C274.357605,196.034363 267.285370,196.034363 259.995544,196.034363 
	C259.912933,197.128143 259.799255,197.928940 259.799744,198.729675 
	C259.812958,220.527054 259.780518,242.324783 259.917328,264.121429 
	C259.940063,267.743774 260.709229,271.361450 261.084351,275.365540 
	C263.702820,288.570068 272.116943,296.357422 283.909180,300.445221 
	C295.090759,304.321411 306.860321,304.864532 318.017303,300.871826 
	C326.459167,297.850739 335.173401,293.719086 338.431732,284.291534 
	C340.430969,278.506989 340.828125,272.168671 342.050354,265.612305 
	C342.125916,247.935593 342.095825,230.725632 342.036285,213.530518 
	C342.006866,213.545380 342.007355,213.611313 342.468567,213.531586 
	C351.570618,213.415512 360.211426,213.379166 368.864685,213.671890 
	C368.879883,214.651581 368.882690,215.302185 368.925354,215.965790 
	C368.965210,215.978760 368.937805,215.899506 368.657593,215.940918 
	C368.255341,216.325562 368.133301,216.668777 368.005615,217.006287 
	C368.000000,217.000610 368.014404,217.005127 367.765594,217.173981 
	C367.333679,217.895233 367.150543,218.447617 366.985870,219.000275 
	C367.004303,219.000549 366.984100,218.969696 366.721344,219.127487 
	C366.295502,219.857544 366.132416,220.429794 365.987091,221.001053 
	C366.004852,221.000046 365.984985,220.970474 365.733704,221.132324 
	C365.103607,222.212311 364.724792,223.130432 364.182343,224.416641 
	C360.222382,235.781082 359.467499,247.010117 360.886353,258.538788 
	C363.577545,280.405273 378.903625,298.921082 401.253540,302.069275 
	C412.227020,303.614990 423.792603,302.381622 433.259827,309.959717 
	C433.887238,310.461945 434.747375,310.673462 435.324158,311.361023 
	C389.818939,311.701843 344.488800,311.701843 298.212189,311.701843 
	C299.485260,313.487366 299.912781,314.178314 300.427887,314.796265 
	C319.198456,337.314087 338.016083,359.792847 356.734039,382.354309 
	C363.414429,390.406494 369.856171,398.656708 375.888611,406.812042 
	C368.979309,406.807556 362.588196,406.807556 356.110474,406.807556 
	C356.110474,409.318298 356.110474,411.229614 356.110474,414.086426 
	C365.379669,414.086426 374.415131,414.086426 383.616699,414.400574 
	C391.906677,424.484436 400.030548,434.254089 408.386597,444.302917 
	C416.897369,433.819550 424.955048,423.894318 433.473419,413.882812 
	C442.482391,413.796600 451.030670,413.796600 459.516541,413.796600 
	C459.516541,410.980286 459.516541,409.076050 459.516541,406.745636 
	C452.744019,406.745636 446.301300,406.745636 439.958557,406.424591 
	C454.782257,388.141693 469.454620,370.137421 484.248138,352.233246 
	C493.739746,340.745850 503.409882,329.406006 513.000000,318.000000 
	C513.000000,382.968781 513.000000,447.937592 513.000000,512.953186 
	C342.446533,512.953186 171.893051,512.953186 1.000000,512.953186 
	C1.000000,447.645050 1.000000,382.289490 1.247424,316.687317 
	C36.928841,358.954529 72.362831,401.468414 107.994774,444.219818 
	C144.508957,399.957886 180.498444,356.331970 217.191574,311.853119 
	C214.400162,311.853119 212.645065,311.853119 210.889984,311.853119 
	C157.249329,311.853088 103.608665,311.841888 49.968010,311.859802 
	C33.645325,311.865265 17.322668,311.951019 1.000000,312.000000 
M279.060638,343.218292 
	C270.976868,333.483124 262.893097,323.747955 254.547836,313.697906 
	C246.030655,324.178101 237.994598,334.066254 229.034012,344.084808 
	C220.465378,344.084808 211.896729,344.084808 203.407074,344.084808 
	C203.407074,346.856781 203.407074,348.773834 203.407074,351.107727 
	C210.163193,351.107727 216.620026,351.107727 223.006149,351.791107 
	C222.643555,352.344330 222.329819,352.937836 221.911346,353.444916 
	C200.928543,378.873138 179.932465,404.290436 158.949448,429.718506 
	C154.666122,434.909210 150.428314,440.137512 145.763382,445.845398 
	C218.988724,445.845398 291.300659,445.845398 364.283813,445.845398 
	C363.418549,444.583649 362.944550,443.758179 362.344604,443.037628 
	C352.010315,430.625641 341.630646,418.251343 331.321136,405.818848 
	C316.235443,387.626587 301.197693,369.394684 287.058807,351.091675 
	C293.651459,351.091675 300.244141,351.091675 306.830902,351.091675 
	C306.830902,348.506531 306.830902,346.576813 306.830902,343.863129 
	C297.500580,343.863129 288.406982,343.863129 279.060638,343.218292 
M184.923004,102.782433 
	C194.718781,139.602798 204.514542,176.423172 214.342148,213.363205 
	C224.362595,213.363205 234.025528,213.196732 243.677353,213.451401 
	C247.164658,213.543411 248.453049,212.561600 249.288406,209.059937 
	C258.717041,169.536911 268.364380,130.066055 277.950348,90.580551 
	C280.644989,79.481003 283.330780,68.379311 286.101654,56.944206 
	C275.081238,56.944206 264.650543,56.944206 253.973801,56.944206 
	C246.191696,92.354156 238.447937,127.589684 230.704178,162.825211 
	C229.138687,160.850479 228.522888,158.713699 227.981689,156.558197 
	C219.992538,124.739166 211.955093,92.931946 204.117126,61.075676 
	C203.286743,57.700726 202.075119,56.512222 198.508667,56.611408 
	C188.683182,56.884655 178.842270,56.838711 169.013702,56.628201 
	C165.896988,56.561447 164.729736,57.626869 163.982666,60.568577 
	C160.457642,74.448639 156.705078,88.271133 153.004593,102.106392 
	C147.744141,121.774109 142.458267,141.435028 137.183258,161.098862 
	C135.793777,159.202332 135.338196,157.453690 134.950775,155.690079 
	C127.982574,123.969254 121.047882,92.240974 113.977699,60.542915 
	C113.662041,59.127731 112.160614,56.907391 111.161385,56.879837 
	C101.204086,56.605297 91.236244,56.713299 80.744904,56.713299 
	C81.181709,58.821957 81.468178,60.404213 81.839294,61.966366 
	C86.919823,83.352585 92.002998,104.738190 97.103668,126.119614 
	C103.711243,153.817856 110.302505,181.520142 117.038338,209.187195 
	C117.414833,210.733643 119.010017,213.147552 120.092949,213.177628 
	C130.870514,213.476791 141.659653,213.359039 152.468994,213.359039 
	C162.688904,174.914017 172.779434,136.955643 182.869980,98.997276 
	C183.174026,99.060387 183.478073,99.123505 183.782120,99.186615 
	C184.091248,100.126289 184.400375,101.065956 184.923004,102.782433 
z"/>
<path fill="#1E6DC7" opacity="1.000000" stroke="none" 
	d="
M1.000000,312.399994 
	C17.322668,311.951019 33.645325,311.865265 49.968010,311.859802 
	C103.608665,311.841888 157.249329,311.853088 210.889984,311.853119 
	C212.645065,311.853119 214.400162,311.853119 217.191574,311.853119 
	C180.498444,356.331970 144.508957,399.957886 107.994774,444.219818 
	C72.362831,401.468414 36.928841,358.954529 1.247424,316.220337 
	C1.000000,314.933319 1.000000,313.866669 1.000000,312.399994 
M157.902878,375.689056 
	C156.432831,376.779266 154.970337,377.879883 153.491516,378.958069 
	C141.901764,387.407867 130.119217,395.499390 116.034515,399.380554 
	C102.350327,403.151367 90.308754,400.531860 80.398209,390.063843 
	C70.714676,379.835602 70.481949,363.940582 79.745918,354.854553 
	C85.926712,348.792480 95.738235,347.325226 103.332619,351.327362 
	C110.180267,354.935974 113.901855,362.720764 112.208336,371.315765 
	C111.301109,375.920197 109.355293,380.319946 107.936981,384.633209 
	C119.203445,383.821259 128.162201,368.884338 124.370201,356.419128 
	C120.809250,344.713470 108.873924,334.960388 96.928436,333.994751 
	C80.029869,332.628723 68.233086,337.995361 62.411789,351.120239 
	C59.504047,357.676208 58.652020,365.136322 56.786282,372.165192 
	C55.868629,375.622284 57.213833,378.132477 59.406300,380.720337 
	C69.521988,392.660370 79.480835,404.733215 89.507545,416.748718 
	C95.545807,423.984650 101.605362,431.202820 107.983856,438.821289 
	C111.983215,433.991364 115.590195,429.679230 119.149879,425.328461 
	C132.527664,408.977478 145.890091,392.613922 159.746231,375.985229 
	C159.334610,375.782166 158.922989,375.579071 157.902878,375.689056 
z"/>
<path fill="#C94844" opacity="1.000000" stroke="none" 
	d="
M476.158020,311.289307 
	C485.661530,311.480743 495.164917,311.680603 504.668701,311.857880 
	C507.134552,311.903870 509.601776,311.879089 512.534180,311.943390 
	C513.000000,313.714355 513.000000,315.428711 513.000000,317.571533 
	C503.409882,329.406006 493.739746,340.745850 484.248138,352.233246 
	C469.454620,370.137421 454.782257,388.141693 439.514038,406.483856 
	C418.115295,406.848267 397.261047,406.832397 376.406830,406.816528 
	C369.856171,398.656708 363.414429,390.406494 356.734039,382.354309 
	C338.016083,359.792847 319.198456,337.314087 300.427887,314.796265 
	C299.912781,314.178314 299.485260,313.487366 298.212189,311.701843 
	C344.488800,311.701843 389.818939,311.701843 435.725586,311.444885 
	C445.868805,314.513580 455.435486,317.839233 464.699097,321.404633 
	C462.810028,323.543976 461.224030,325.443573 459.430908,327.591278 
	C463.294464,333.298553 467.035126,338.824341 470.775818,344.350098 
	C471.725037,340.246399 471.977814,336.480286 471.654053,332.764435 
	C471.329651,329.041168 472.557159,326.572845 475.632141,324.428436 
	C479.346436,321.838104 482.689301,318.715118 487.130219,315.048920 
	C481.360901,315.048920 476.917816,315.048920 472.647461,314.717072 
	C473.932831,313.353271 475.045441,312.321289 476.158020,311.289307 
M416.085144,374.609039 
	C418.564453,370.088684 420.831390,365.432953 423.595734,361.094177 
	C425.526703,358.063416 424.917419,356.246155 422.427643,353.934723 
	C417.477386,349.339081 412.863678,344.380951 407.990021,339.450256 
	C418.039886,331.495575 427.839661,323.738861 438.749542,315.103485 
	C427.841217,315.103485 418.553436,315.080414 409.266144,315.139008 
	C408.333130,315.144897 407.163330,315.375641 406.508331,315.957703 
	C398.475281,323.096619 390.517853,330.320648 382.190857,337.838623 
	C388.899109,343.590759 394.920471,349.065430 401.298737,354.086670 
	C404.318878,356.464203 405.029449,358.941223 404.709625,362.612579 
	C403.682281,374.404968 403.042236,386.231079 402.252777,398.044189 
	C402.523560,398.123108 402.794342,398.201996 403.065094,398.280914 
	C407.299408,390.611816 411.533722,382.942719 416.085144,374.609039 
M349.798004,343.177917 
	C354.303467,337.678741 358.808929,332.179535 363.347229,326.640228 
	C361.456848,323.685638 359.859009,320.966034 358.025024,318.416229 
	C357.118439,317.155853 355.828186,315.339752 354.622650,315.268005 
	C349.000732,314.933350 343.347870,315.119659 337.706055,315.119659 
	C337.341888,315.535767 336.977722,315.951874 336.613525,316.367950 
	C348.730804,321.802582 350.899323,331.110046 348.055054,342.378296 
	C347.976410,342.690002 347.919373,343.233795 348.070526,343.331421 
	C348.424164,343.559814 348.910645,343.582489 349.798004,343.177917 
z"/>
<path fill="#ffffff" opacity="1.000000" stroke="none" 
	d="
M184.816254,102.394028 
	C184.400375,101.065956 184.091248,100.126289 183.782120,99.186615 
	C183.478073,99.123505 183.174026,99.060387 182.869980,98.997276 
	C172.779434,136.955643 162.688904,174.914017 152.468994,213.359039 
	C141.659653,213.359039 130.870514,213.476791 120.092949,213.177628 
	C119.010017,213.147552 117.414833,210.733643 117.038338,209.187195 
	C110.302505,181.520142 103.711243,153.817856 97.103668,126.119614 
	C92.002998,104.738190 86.919823,83.352585 81.839294,61.966366 
	C81.468178,60.404213 81.181709,58.821957 80.744904,56.713299 
	C91.236244,56.713299 101.204086,56.605297 111.161385,56.879837 
	C112.160614,56.907391 113.662041,59.127731 113.977699,60.542915 
	C121.047882,92.240974 127.982574,123.969254 134.950775,155.690079 
	C135.338196,157.453690 135.793777,159.202332 137.183258,161.098862 
	C142.458267,141.435028 147.744141,121.774109 153.004593,102.106392 
	C156.705078,88.271133 160.457642,74.448639 163.982666,60.568577 
	C164.729736,57.626869 165.896988,56.561447 169.013702,56.628201 
	C178.842270,56.838711 188.683182,56.884655 198.508667,56.611408 
	C202.075119,56.512222 203.286743,57.700726 204.117126,61.075676 
	C211.955093,92.931946 219.992538,124.739166 227.981689,156.558197 
	C228.522888,158.713699 229.138687,160.850479 230.704178,162.825211 
	C238.447937,127.589684 246.191696,92.354156 253.973801,56.944206 
	C264.650543,56.944206 275.081238,56.944206 286.101654,56.944206 
	C283.330780,68.379311 280.644989,79.481003 277.950348,90.580551 
	C268.364380,130.066055 258.717041,169.536911 249.288406,209.059937 
	C248.453049,212.561600 247.164658,213.543411 243.677353,213.451401 
	C234.025528,213.196732 224.362595,213.363205 214.342148,213.363205 
	C204.514542,176.423172 194.718781,139.602798 184.816254,102.394028 
z"/>
<path fill="#4DA69E" opacity="1.000000" stroke="none" 
	d="
M286.139496,351.179657 
	C301.197693,369.394684 316.235443,387.626587 331.321136,405.818848 
	C341.630646,418.251343 352.010315,430.625641 362.344604,443.037628 
	C362.944550,443.758179 363.418549,444.583649 364.283813,445.845398 
	C291.300659,445.845398 218.988724,445.845398 145.763382,445.845398 
	C150.428314,440.137512 154.666122,434.909210 158.949448,429.718506 
	C179.932465,404.290436 200.928543,378.873138 221.911346,353.444916 
	C222.329819,352.937836 222.643555,352.344330 223.495178,351.405579 
	C229.311325,351.056702 234.638443,351.093384 239.756943,351.383118 
	C232.378540,355.413605 225.208755,359.191010 218.038971,362.968414 
	C224.705734,363.337799 238.766342,356.448914 244.499939,351.072205 
	C254.438095,351.118744 263.911377,351.204041 273.239380,351.599365 
	C269.958893,354.195129 266.820709,356.476868 263.690063,358.768860 
	C262.726990,359.473907 261.580170,360.050873 260.881622,360.964844 
	C259.907440,362.239380 259.638184,364.350098 258.438690,365.107361 
	C249.898087,370.499329 241.326324,375.869751 232.501343,380.773499 
	C226.825287,383.927551 220.753220,386.541199 214.517075,384.253998 
	C209.101807,392.517242 198.358597,389.205444 192.512787,395.393433 
	C198.728333,394.612610 204.650650,393.069061 210.637131,391.837311 
	C212.874878,391.376862 215.539215,392.293823 217.525848,391.447968 
	C222.220566,389.448975 226.674591,386.856628 231.137421,384.346802 
	C240.971817,378.816162 250.727554,373.145416 260.573395,367.635529 
	C262.583923,366.510437 265.525421,366.418701 266.866943,364.849579 
	C270.516663,360.580597 273.539215,355.775360 277.275452,351.132294 
	C280.540222,351.114502 283.339874,351.147095 286.139496,351.179657 
M288.052155,376.666382 
	C290.096619,373.083038 293.446075,370.036835 293.045380,365.312042 
	C288.677612,371.298279 285.226318,377.888794 277.357971,379.655792 
	C279.266174,384.581024 273.747498,390.592377 259.480988,399.062500 
	C251.242737,403.953583 243.120346,409.571045 233.381104,408.055054 
	C231.910614,409.770447 231.084167,411.697510 229.777542,412.112366 
	C213.654221,417.231995 197.458939,422.124847 181.289841,427.101013 
	C180.252533,427.420288 179.089828,427.730133 178.313492,428.415802 
	C176.733154,429.811493 175.547729,431.681427 173.894394,432.961945 
	C169.968628,436.002533 165.864914,438.813446 161.833130,441.717194 
	C162.151932,442.207153 162.470734,442.697144 162.789536,443.187103 
	C164.039688,442.606079 165.354492,442.132172 166.527878,441.423950 
	C170.078934,439.280792 173.483902,436.875305 177.136703,434.930695 
	C178.642502,434.129089 180.635025,434.241760 183.768494,433.705414 
	C188.704437,428.652863 188.677582,428.571106 197.561325,425.652283 
	C208.609909,422.022156 219.690262,418.484772 230.808365,415.075165 
	C232.216370,414.643341 233.935577,415.226318 235.646393,415.348846 
	C238.684769,413.473694 242.047607,411.385193 245.423172,409.317444 
	C255.312988,403.259399 265.578827,397.722595 274.949066,390.946808 
	C279.861511,387.394501 286.458313,384.613586 288.052155,376.666382 
M279.649506,412.163269 
	C272.789307,416.525635 265.701385,420.573029 259.125183,425.328186 
	C250.429062,431.616211 238.967621,429.211304 230.110229,435.412079 
	C226.103561,438.217041 220.405533,438.606262 215.474594,440.090668 
	C213.230804,440.766113 210.986511,441.439789 208.742462,442.114288 
	C210.962936,442.887421 213.024643,443.220184 214.932816,442.820312 
	C219.316330,441.901611 223.583115,440.415283 227.973434,439.542236 
	C235.508835,438.043732 242.574509,435.475159 249.669510,432.455200 
	C263.595917,426.527466 276.527618,419.323792 287.579285,408.874969 
	C288.740601,407.777039 290.760773,407.587494 291.983948,407.126678 
	C294.623474,402.563141 297.008453,398.013000 299.789795,393.719635 
	C305.629211,384.705902 306.165405,383.676208 305.123047,379.957458 
	C304.329346,381.107697 303.688293,381.981506 303.104279,382.891907 
	C298.685638,389.779907 296.014709,398.157837 287.290070,401.374695 
	C286.857880,401.534027 286.163513,402.120117 286.222870,402.309357 
	C287.968231,407.874512 282.402710,408.722351 279.649506,412.163269 
M318.100525,415.613190 
	C314.660339,418.269836 311.220154,420.926453 307.893433,423.495483 
	C307.010834,424.995483 306.389343,426.874786 305.113403,428.033386 
	C303.040741,429.915436 300.641388,431.503815 298.198730,432.898987 
	C292.488678,436.160583 286.671082,439.233856 280.897003,442.383362 
	C283.077789,442.833649 285.213562,442.887390 286.829407,441.997314 
	C293.656250,438.236877 300.301910,434.149109 307.076721,430.291565 
	C308.627014,429.408844 310.427277,428.965149 312.768707,428.067902 
	C317.419586,421.471863 322.627930,414.085236 327.836243,406.698639 
	C327.271301,406.316315 326.706360,405.934021 326.141388,405.551727 
	C323.621185,408.729706 321.100983,411.907684 318.100525,415.613190 
M333.845978,432.269226 
	C330.751190,436.046265 327.656403,439.823303 325.337250,442.653717 
	C330.914276,442.502502 342.131592,428.650787 340.021149,421.749115 
	C337.967529,425.265778 336.100616,428.462738 333.845978,432.269226 
z"/>
<path fill="#ffffff" opacity="1.000000" stroke="none" 
	d="
M321.848694,213.360489 
	C315.383881,213.360489 308.919067,213.360489 302.159119,213.360489 
	C302.159119,161.095413 302.159119,109.204010 302.159119,57.004433 
	C340.727448,57.004433 379.259857,57.004433 417.959656,57.004433 
	C417.959656,65.821365 417.959656,74.433403 417.959656,83.409004 
	C389.996735,83.409004 362.232697,83.409004 334.165833,83.409004 
	C334.165833,94.861557 334.165833,105.957092 334.165833,117.608795 
	C359.949554,117.608795 385.828400,117.608795 412.006805,117.608795 
	C412.006805,126.730515 412.006805,135.305267 412.006805,144.392014 
	C386.138733,144.392014 360.269135,144.392014 334.132355,144.392014 
	C334.132355,158.646286 334.132355,172.394592 334.132355,186.585800 
	C362.945709,186.585800 391.690735,186.585800 421.070679,186.585800 
	C421.070679,188.924515 421.070679,190.835739 420.496002,193.266205 
	C416.128601,193.861359 412.335938,193.938766 408.543182,194.012955 
	C393.028168,194.316483 380.480896,200.508102 370.676575,212.927078 
	C369.813171,213.081757 369.332703,213.212280 368.852264,213.342804 
	C360.211426,213.379166 351.570618,213.415512 342.486237,213.149719 
	C341.968201,212.604568 341.893677,212.361557 341.909851,211.646179 
	C342.000519,206.250763 342.000519,201.327698 342.000519,196.332428 
	C335.326019,196.332428 329.298065,196.332428 322.903137,196.332428 
	C322.903137,198.553558 323.012909,200.368500 322.880280,202.165543 
	C322.604462,205.902206 322.200195,209.629410 321.848694,213.360489 
z"/>
<path fill="#1F6CC3" opacity="1.000000" stroke="none" 
	d="
M371.059540,212.902924 
	C380.480896,200.508102 393.028168,194.316483 408.543182,194.012955 
	C412.335938,193.938766 416.128601,193.861359 420.366516,193.684158 
	C426.737061,195.358246 432.749847,196.888748 438.567291,198.966400 
	C447.270721,202.074799 453.568237,208.063400 458.143280,216.087875 
	C462.743469,224.156357 464.126953,232.907806 465.739868,241.937057 
	C467.770233,253.303116 465.065277,263.727692 461.649902,273.786041 
	C458.014221,284.493317 449.429443,291.988525 439.496124,297.589691 
	C439.419373,298.095337 439.342621,298.600983 439.265900,299.106628 
	C452.299438,302.082611 465.333008,305.058594 478.345306,308.029694 
	C477.996460,308.490723 477.153076,309.605408 476.233856,311.004700 
	C475.045441,312.321289 473.932831,313.353271 472.347839,314.750977 
	C469.584351,317.132782 467.293243,319.148834 465.002167,321.164856 
	C455.435486,317.839233 445.868805,314.513580 435.900696,311.104065 
	C434.747375,310.673462 433.887238,310.461945 433.259827,309.959717 
	C423.792603,302.381622 412.227020,303.614990 401.253540,302.069275 
	C378.903625,298.921082 363.577545,280.405273 360.886353,258.538788 
	C359.467499,247.010117 360.222382,235.781082 364.502258,224.333130 
	C365.318909,222.911194 365.651947,221.940842 365.984985,220.970474 
	C365.984985,220.970474 366.004852,221.000046 366.268982,220.863693 
	C366.683441,220.141449 366.833771,219.555573 366.984100,218.969696 
	C366.984100,218.969696 367.004303,219.000549 367.268372,218.869949 
	C367.693085,218.161270 367.853760,217.583206 368.014404,217.005127 
	C368.014404,217.005127 368.000000,217.000610 368.257904,216.921646 
	C368.656464,216.528290 368.797150,216.213898 368.937805,215.899506 
	C368.937805,215.899506 368.965210,215.978760 369.242432,215.859238 
	C370.032990,214.794128 370.546265,213.848526 371.059540,212.902924 
M396.796234,213.072983 
	C396.486542,213.396759 396.176849,213.720551 395.284363,214.343994 
	C392.924652,217.687119 389.936035,220.756134 388.334808,224.429855 
	C384.889893,232.333633 383.505707,240.581650 383.700439,249.458359 
	C383.846039,256.096588 385.001678,262.232483 386.931244,268.335510 
	C390.026428,278.125519 396.704865,284.599609 406.391418,287.971680 
	C416.868042,291.618774 431.517059,284.684784 436.790558,274.168976 
	C444.913605,257.970886 444.924927,241.416962 438.124817,224.869659 
	C435.137634,217.600693 430.132233,211.961807 421.531372,209.286835 
	C412.895142,206.318878 404.873535,207.755417 396.796234,213.072983 
z"/>
<path fill="#1D6CC5" opacity="1.000000" stroke="none" 
	d="
M341.819183,212.118546 
	C341.893677,212.361557 341.968201,212.604568 342.025024,213.229446 
	C342.007355,213.611313 342.006866,213.545380 341.767120,213.897339 
	C341.361633,215.050629 341.053101,215.851639 341.051331,216.653336 
	C341.017120,232.062408 341.000458,247.471603 341.053375,262.880524 
	C341.057037,263.947723 341.634247,265.012909 341.944733,266.079041 
	C340.828125,272.168671 340.430969,278.506989 338.431732,284.291534 
	C335.173401,293.719086 326.459167,297.850739 318.017303,300.871826 
	C306.860321,304.864532 295.090759,304.321411 283.909180,300.445221 
	C272.116943,296.357422 263.702820,288.570068 261.345337,275.099609 
	C261.655487,248.801392 261.655487,223.153351 261.655487,197.305939 
	C267.953430,197.305939 274.171051,197.305939 280.994385,197.305939 
	C280.994385,199.395905 280.994263,201.180161 280.994385,202.964401 
	C280.995972,222.414932 280.972137,241.865570 281.039154,261.315857 
	C281.045746,263.232361 281.608978,265.146942 281.913879,267.062408 
	C282.222961,269.044342 282.574066,271.020782 282.834106,273.009125 
	C284.264618,283.947327 295.744110,290.137512 305.478333,288.934204 
	C313.797516,287.905853 322.370605,280.726746 322.462952,267.313416 
	C323.255219,265.079865 323.911133,263.386719 323.918640,261.690735 
	C323.995331,244.241806 323.967316,226.792435 323.967957,209.343170 
	C323.968445,196.727036 323.968445,196.897079 336.475403,196.872742 
	C340.426422,196.865051 341.228027,198.330673 341.103424,201.849289 
	C340.982635,205.259644 341.552582,208.694473 341.819183,212.118546 
z"/>
<path fill="#CA4945" opacity="1.000000" stroke="none" 
	d="
M433.012756,413.969055 
	C424.955048,423.894318 416.897369,433.819550 408.386597,444.302917 
	C400.030548,434.254089 391.906677,424.484436 384.127533,414.341339 
	C400.652435,413.968323 416.832581,413.968689 433.012756,413.969055 
z"/>
<path fill="#5F5B5B" opacity="1.000000" stroke="none" 
	d="
M433.473450,413.882843 
	C416.832581,413.968689 400.652435,413.968323 383.961426,414.027161 
	C374.415131,414.086426 365.379669,414.086426 356.110474,414.086426 
	C356.110474,411.229614 356.110474,409.318298 356.110474,406.807556 
	C362.588196,406.807556 368.979309,406.807556 375.888611,406.812042 
	C397.261047,406.832397 418.115295,406.848267 439.414032,406.804901 
	C446.301300,406.745636 452.744019,406.745636 459.516541,406.745636 
	C459.516541,409.076050 459.516541,410.980286 459.516541,413.796600 
	C451.030670,413.796600 442.482391,413.796600 433.473450,413.882843 
z"/>
<path fill="#595B5B" opacity="1.000000" stroke="none" 
	d="
M239.965561,351.130066 
	C234.638443,351.093384 229.311325,351.056702 223.530533,351.063873 
	C216.620026,351.107727 210.163193,351.107727 203.407074,351.107727 
	C203.407074,348.773834 203.407074,346.856781 203.407074,344.084808 
	C211.896729,344.084808 220.465378,344.084808 229.965881,344.056763 
	C237.342468,343.984222 243.787201,343.939728 250.609985,343.974304 
	C252.018265,344.032196 253.048508,344.010956 254.541656,344.019714 
	C263.107513,343.987488 271.210449,343.925323 279.313385,343.863129 
	C288.406982,343.863129 297.500580,343.863129 306.830902,343.863129 
	C306.830902,346.576813 306.830902,348.506531 306.830902,351.091675 
	C300.244141,351.091675 293.651459,351.091675 286.599152,351.135681 
	C283.339874,351.147095 280.540222,351.114502 276.930542,351.087158 
	C275.208557,351.158020 274.296600,351.223663 273.384644,351.289307 
	C263.911377,351.204041 254.438095,351.118744 244.092377,351.037842 
	C242.135132,351.071533 241.050339,351.100800 239.965561,351.130066 
z"/>
<path fill="#4FA79F" opacity="1.000000" stroke="none" 
	d="
M279.187012,343.540710 
	C271.210449,343.925323 263.107513,343.987488 254.709106,343.739288 
	C258.305420,339.662567 262.493164,336.111450 263.865540,333.190247 
	C260.320038,335.974152 255.275970,339.934692 250.231918,343.895233 
	C243.787201,343.939728 237.342468,343.984222 230.428146,343.991577 
	C237.994598,334.066254 246.030655,324.178101 254.547836,313.697906 
	C262.893097,323.747955 270.976868,333.483124 279.187012,343.540710 
z"/>
<path fill="#3F6085" opacity="1.000000" stroke="none" 
	d="
M282.084229,266.612671 
	C281.608978,265.146942 281.045746,263.232361 281.039154,261.315857 
	C280.972137,241.865570 280.995972,222.414932 280.994385,202.964401 
	C280.994263,201.180161 280.994385,199.395905 280.994385,197.305939 
	C274.171051,197.305939 267.953430,197.305939 261.655487,197.305939 
	C261.655487,223.153351 261.655487,248.801392 261.394470,274.715332 
	C260.709229,271.361450 259.940063,267.743774 259.917328,264.121429 
	C259.780518,242.324783 259.812958,220.527054 259.799744,198.729675 
	C259.799255,197.928940 259.912933,197.128143 259.995544,196.034363 
	C267.285370,196.034363 274.357605,196.034363 282.254608,196.034363 
	C282.254608,219.386597 282.254608,242.774780 282.084229,266.612671 
z"/>
<path fill="#4E6C8F" opacity="1.000000" stroke="none" 
	d="
M341.909851,211.646179 
	C341.552582,208.694473 340.982635,205.259644 341.103424,201.849289 
	C341.228027,198.330673 340.426422,196.865051 336.475403,196.872742 
	C323.968445,196.897079 323.968445,196.727036 323.967957,209.343170 
	C323.967316,226.792435 323.995331,244.241806 323.918640,261.690735 
	C323.911133,263.386719 323.255219,265.079865 322.519897,266.881775 
	C322.148651,249.393814 322.157806,231.798416 322.007812,213.781738 
	C322.200195,209.629410 322.604462,205.902206 322.880280,202.165543 
	C323.012909,200.368500 322.903137,198.553558 322.903137,196.332428 
	C329.298065,196.332428 335.326019,196.332428 342.000519,196.332428 
	C342.000519,201.327698 342.000519,206.250763 341.909851,211.646179 
z"/>
<path fill="#4E6C8F" opacity="1.000000" stroke="none" 
	d="
M342.050354,265.612305 
	C341.634247,265.012909 341.057037,263.947723 341.053375,262.880524 
	C341.000458,247.471603 341.017120,232.062408 341.051331,216.653336 
	C341.053101,215.851639 341.361633,215.050629 341.796539,213.882477 
	C342.095825,230.725632 342.125916,247.935593 342.050354,265.612305 
z"/>
<path fill="#4E6C8F" opacity="1.000000" stroke="none" 
	d="
M370.676575,212.927078 
	C370.546265,213.848526 370.032990,214.794128 369.202576,215.846252 
	C368.882690,215.302185 368.879883,214.651581 368.864685,213.671875 
	C369.332703,213.212280 369.813171,213.081757 370.676575,212.927078 
z"/>
<path fill="#4E6C8F" opacity="1.000000" stroke="none" 
	d="
M365.733704,221.132324 
	C365.651947,221.940842 365.318909,222.911194 364.665924,223.965057 
	C364.724792,223.130432 365.103607,222.212311 365.733704,221.132324 
z"/>
<path fill="#4E6C8F" opacity="1.000000" stroke="none" 
	d="
M367.765594,217.173981 
	C367.853760,217.583206 367.693085,218.161270 367.249939,218.869675 
	C367.150543,218.447617 367.333679,217.895233 367.765594,217.173981 
z"/>
<path fill="#4E6C8F" opacity="1.000000" stroke="none" 
	d="
M366.721344,219.127487 
	C366.833771,219.555573 366.683441,220.141449 366.251221,220.864700 
	C366.132416,220.429794 366.295502,219.857544 366.721344,219.127487 
z"/>
<path fill="#4E6C8F" opacity="1.000000" stroke="none" 
	d="
M368.657593,215.940918 
	C368.797150,216.213898 368.656464,216.528290 368.263550,216.927338 
	C368.133301,216.668777 368.255341,216.325562 368.657593,215.940918 
z"/>
<path fill="#FBFDFE" opacity="0.000000" stroke="none" 
	d="
M159.258240,376.255096 
	C145.890091,392.613922 132.527664,408.977478 119.149879,425.328461 
	C115.590195,429.679230 111.983215,433.991364 107.983856,438.821289 
	C101.605362,431.202820 95.545807,423.984650 89.507545,416.748718 
	C79.480835,404.733215 69.521988,392.660370 59.406300,380.720337 
	C57.213833,378.132477 55.868629,375.622284 56.786282,372.165192 
	C58.652020,365.136322 59.504047,357.676208 62.411789,351.120239 
	C68.233086,337.995361 80.029869,332.628723 96.928436,333.994751 
	C108.873924,334.960388 120.809250,344.713470 124.370201,356.419128 
	C128.162201,368.884338 119.203445,383.821259 107.936981,384.633209 
	C109.355293,380.319946 111.301109,375.920197 112.208336,371.315765 
	C113.901855,362.720764 110.180267,354.935974 103.332619,351.327362 
	C95.738235,347.325226 85.926712,348.792480 79.745918,354.854553 
	C70.481949,363.940582 70.714676,379.835602 80.398209,390.063843 
	C90.308754,400.531860 102.350327,403.151367 116.034515,399.380554 
	C130.119217,395.499390 141.901764,387.407867 153.491516,378.958069 
	C154.970337,377.879883 156.432831,376.779266 158.384232,375.760468 
	C158.996475,375.972961 159.127365,376.114014 159.258240,376.255096 
z"/>
<path fill="#FBFDFE" opacity="0.000000" stroke="none" 
	d="
M158.688477,375.603943 
	C158.922989,375.579071 159.334610,375.782166 159.502243,376.120178 
	C159.127365,376.114014 158.996475,375.972961 158.688477,375.603943 
z"/>
<path fill="#FEFBFB" opacity="0.000000" stroke="none" 
	d="
M415.926575,374.941345 
	C411.533722,382.942719 407.299408,390.611816 403.065094,398.280914 
	C402.794342,398.201996 402.523560,398.123108 402.252777,398.044189 
	C403.042236,386.231079 403.682281,374.404968 404.709625,362.612579 
	C405.029449,358.941223 404.318878,356.464203 401.298737,354.086670 
	C394.920471,349.065430 388.899109,343.590759 382.190857,337.838623 
	C390.517853,330.320648 398.475281,323.096619 406.508331,315.957703 
	C407.163330,315.375641 408.333130,315.144897 409.266144,315.139008 
	C418.553436,315.080414 427.841217,315.103485 438.749542,315.103485 
	C427.839661,323.738861 418.039886,331.495575 407.990021,339.450256 
	C412.863678,344.380951 417.477386,349.339081 422.427643,353.934723 
	C424.917419,356.246155 425.526703,358.063416 423.595734,361.094177 
	C420.831390,365.432953 418.564453,370.088684 415.926575,374.941345 
z"/>
<path fill="#FDF8F8" opacity="0.000000" stroke="none" 
	d="
M349.570679,343.433197 
	C348.910645,343.582489 348.424164,343.559814 348.070526,343.331421 
	C347.919373,343.233795 347.976410,342.690002 348.055054,342.378296 
	C350.899323,331.110046 348.730804,321.802582 336.613525,316.367950 
	C336.977722,315.951874 337.341888,315.535767 337.706055,315.119659 
	C343.347870,315.119659 349.000732,314.933350 354.622650,315.268005 
	C355.828186,315.339752 357.118439,317.155853 358.025024,318.416229 
	C359.859009,320.966034 361.456848,323.685638 363.347229,326.640228 
	C358.808929,332.179535 354.303467,337.678741 349.570679,343.433197 
z"/>
<path fill="#FBF4F4" opacity="0.000000" stroke="none" 
	d="
M464.699097,321.404633 
	C467.293243,319.148834 469.584351,317.132782 472.175049,315.082825 
	C476.917816,315.048920 481.360901,315.048920 487.130219,315.048920 
	C482.689301,318.715118 479.346436,321.838104 475.632141,324.428436 
	C472.557159,326.572845 471.329651,329.041168 471.654053,332.764435 
	C471.977814,336.480286 471.725037,340.246399 470.775818,344.350098 
	C467.035126,338.824341 463.294464,333.298553 459.430908,327.591278 
	C461.224030,325.443573 462.810028,323.543976 464.699097,321.404633 
z"/>
<path fill="#F1F8F7" opacity="0.000000" stroke="none" 
	d="
M287.846771,376.972870 
	C286.458313,384.613586 279.861511,387.394501 274.949066,390.946808 
	C265.578827,397.722595 255.312988,403.259399 245.423172,409.317444 
	C242.047607,411.385193 238.684769,413.473694 235.646393,415.348846 
	C233.935577,415.226318 232.216370,414.643341 230.808365,415.075165 
	C219.690262,418.484772 208.609909,422.022156 197.561325,425.652283 
	C188.677582,428.571106 188.704437,428.652863 183.768494,433.705414 
	C180.635025,434.241760 178.642502,434.129089 177.136703,434.930695 
	C173.483902,436.875305 170.078934,439.280792 166.527878,441.423950 
	C165.354492,442.132172 164.039688,442.606079 162.789536,443.187103 
	C162.470734,442.697144 162.151932,442.207153 161.833130,441.717194 
	C165.864914,438.813446 169.968628,436.002533 173.894394,432.961945 
	C175.547729,431.681427 176.733154,429.811493 178.313492,428.415802 
	C179.089828,427.730133 180.252533,427.420288 181.289841,427.101013 
	C197.458939,422.124847 213.654221,417.231995 229.777542,412.112366 
	C231.084167,411.697510 231.910614,409.770447 233.381104,408.055054 
	C243.120346,409.571045 251.242737,403.953583 259.480988,399.062500 
	C273.747498,390.592377 279.266174,384.581024 277.357971,379.655792 
	C285.226318,377.888794 288.677612,371.298279 293.045380,365.312042 
	C293.446075,370.036835 290.096619,373.083038 287.846771,376.972870 
z"/>
<path fill="#F1F8F7" opacity="0.000000" stroke="none" 
	d="
M279.927155,411.941742 
	C282.402710,408.722351 287.968231,407.874512 286.222870,402.309357 
	C286.163513,402.120117 286.857880,401.534027 287.290070,401.374695 
	C296.014709,398.157837 298.685638,389.779907 303.104279,382.891907 
	C303.688293,381.981506 304.329346,381.107697 305.123047,379.957458 
	C306.165405,383.676208 305.629211,384.705902 299.789795,393.719635 
	C297.008453,398.013000 294.623474,402.563141 291.983948,407.126678 
	C290.760773,407.587494 288.740601,407.777039 287.579285,408.874969 
	C276.527618,419.323792 263.595917,426.527466 249.669510,432.455200 
	C242.574509,435.475159 235.508835,438.043732 227.973434,439.542236 
	C223.583115,440.415283 219.316330,441.901611 214.932816,442.820312 
	C213.024643,443.220184 210.962936,442.887421 208.742462,442.114288 
	C210.986511,441.439789 213.230804,440.766113 215.474594,440.090668 
	C220.405533,438.606262 226.103561,438.217041 230.110229,435.412079 
	C238.967621,429.211304 250.429062,431.616211 259.125183,425.328186 
	C265.701385,420.573029 272.789307,416.525635 279.927155,411.941742 
z"/>
<path fill="#F0F7F7" opacity="0.000000" stroke="none" 
	d="
M273.239380,351.599396 
	C274.296600,351.223663 275.208557,351.158020 276.465424,351.137512 
	C273.539215,355.775360 270.516663,360.580597 266.866943,364.849579 
	C265.525421,366.418701 262.583923,366.510437 260.573395,367.635529 
	C250.727554,373.145416 240.971817,378.816162 231.137421,384.346802 
	C226.674591,386.856628 222.220566,389.448975 217.525848,391.447968 
	C215.539215,392.293823 212.874878,391.376862 210.637131,391.837311 
	C204.650650,393.069061 198.728333,394.612610 192.512787,395.393433 
	C198.358597,389.205444 209.101807,392.517242 214.517075,384.253998 
	C220.753220,386.541199 226.825287,383.927551 232.501343,380.773499 
	C241.326324,375.869751 249.898087,370.499329 258.438690,365.107361 
	C259.638184,364.350098 259.907440,362.239380 260.881622,360.964844 
	C261.580170,360.050873 262.726990,359.473907 263.690063,358.768860 
	C266.820709,356.476868 269.958893,354.195129 273.239380,351.599396 
z"/>
<path fill="#EFF7F6" opacity="1.000000" stroke="none" 
	d="
M318.340637,415.349426 
	C321.100983,411.907684 323.621185,408.729706 326.141388,405.551727 
	C326.706360,405.934021 327.271301,406.316315 327.836243,406.698639 
	C322.627930,414.085236 317.419586,421.471863 312.768707,428.067902 
	C310.427277,428.965149 308.627014,429.408844 307.076721,430.291565 
	C300.301910,434.149109 293.656250,438.236877 286.829407,441.997314 
	C285.213562,442.887390 283.077789,442.833649 280.897003,442.383362 
	C286.671082,439.233856 292.488678,436.160583 298.198730,432.898987 
	C300.641388,431.503815 303.040741,429.915436 305.113403,428.033386 
	C306.389343,426.874786 307.010834,424.995483 307.893433,423.495483 
	C311.220154,420.926453 314.660339,418.269836 318.340637,415.349426 
z"/>
<path fill="#EEF6F5" opacity="1.000000" stroke="none" 
	d="
M239.756943,351.383118 
	C241.050339,351.100800 242.135132,351.071533 243.627472,351.076599 
	C238.766342,356.448914 224.705734,363.337799 218.038971,362.968414 
	C225.208755,359.191010 232.378540,355.413605 239.756943,351.383118 
z"/>
<path fill="#EAF4F4" opacity="1.000000" stroke="none" 
	d="
M334.039856,431.964447 
	C336.100616,428.462738 337.967529,425.265778 340.021149,421.749115 
	C342.131592,428.650787 330.914276,442.502502 325.337250,442.653717 
	C327.656403,439.823303 330.751190,436.046265 334.039856,431.964447 
z"/>
<path fill="#FDFDFD" opacity="0.000000" stroke="none" 
	d="
M422.083191,209.836838 
	C430.132233,211.961807 435.137634,217.600693 438.124817,224.869659 
	C444.924927,241.416962 444.913605,257.970886 436.790558,274.168976 
	C431.517059,284.684784 416.868042,291.618774 406.391418,287.971680 
	C396.704865,284.599609 390.026428,278.125519 386.931244,268.335510 
	C385.001678,262.232483 383.846039,256.096588 383.700439,249.458359 
	C383.505707,240.581650 384.889893,232.333633 388.334808,224.429855 
	C389.936035,220.756134 392.924652,217.687119 395.978271,214.202972 
	C396.875610,213.888397 397.079102,213.714844 397.674561,213.470367 
	C404.194550,213.396469 410.336731,213.145203 416.444702,213.493332 
	C419.585419,213.672333 421.261810,212.695450 422.083191,209.836838 
z"/>
<path fill="#ffffff" opacity="1.000000" stroke="none" 
	d="
M421.807281,209.561829 
	C421.261810,212.695450 419.585419,213.672333 416.444702,213.493332 
	C410.336731,213.145203 404.194550,213.396469 397.801697,213.257843 
	C397.536804,213.116241 397.336365,212.663269 397.336365,212.663269 
	C404.873535,207.755417 412.895142,206.318878 421.807281,209.561829 
z"/>
<path fill="#8A8C8D" opacity="1.000000" stroke="none" 
	d="
M397.066284,212.868134 
	C397.336365,212.663269 397.536804,213.116241 397.409698,213.328766 
	C397.079102,213.714844 396.875610,213.888397 396.269653,214.053146 
	C396.176849,213.720551 396.486542,213.396759 397.066284,212.868134 
z"/>
<path fill="#F5FAFA" opacity="0.000000" stroke="none" 
	d="
M250.609985,343.974304 
	C255.275970,339.934692 260.320038,335.974152 263.865540,333.190247 
	C262.493164,336.111450 258.305420,339.662567 254.246185,343.709320 
	C253.048508,344.010956 252.018265,344.032196 250.609985,343.974304 
z"/>
</svg>