solid 
 facet normal  0.000000e+00  1.000000e+00  0.000000e+00
   outer loop
     vertex -1.143000e+01  1.143000e+01  3.753679e+02
     vertex -1.143000e+01  1.143000e+01  2.085377e+02
     vertex -3.429000e+01  1.143000e+01  2.085377e+02
   endloop
 endfacet
 facet normal  0.000000e+00  1.000000e+00  0.000000e+00
   outer loop
     vertex  1.143000e+01  1.143000e+01  4.421000e+02
     vertex  1.143000e+01  1.143000e+01  3.753679e+02
     vertex -1.143000e+01  1.143000e+01  3.753679e+02
   endloop
 endfacet
 facet normal -0.000000e+00  1.000000e+00  0.000000e+00
   outer loop
     vertex -3.429000e+01  1.143000e+01  4.421000e+02
     vertex  1.143000e+01  1.143000e+01  4.421000e+02
     vertex -1.143000e+01  1.143000e+01  3.753679e+02
   endloop
 endfacet
 facet normal  0.000000e+00  1.000000e+00  0.000000e+00
   outer loop
     vertex -3.429000e+01  1.143000e+01  4.421000e+02
     vertex -1.143000e+01  1.143000e+01  3.753679e+02
     vertex -3.429000e+01  1.143000e+01  2.085377e+02
   endloop
 endfacet
 facet normal  0.000000e+00 -0.000000e+00  1.000000e+00
   outer loop
     vertex  1.143000e+01 -1.143000e+01  4.421000e+02
     vertex  1.143000e+01  1.143000e+01  4.421000e+02
     vertex -3.429000e+01  1.143000e+01  4.421000e+02
   endloop
 endfacet
 facet normal  0.000000e+00  0.000000e+00  1.000000e+00
   outer loop
     vertex  1.143000e+01 -1.143000e+01  4.421000e+02
     vertex -3.429000e+01  1.143000e+01  4.421000e+02
     vertex -3.429000e+01 -1.143000e+01  4.421000e+02
   endloop
 endfacet
 facet normal  1.000000e+00  0.000000e+00  0.000000e+00
   outer loop
     vertex  1.143000e+01 -1.143000e+01  4.421000e+02
     vertex  1.143000e+01 -1.143000e+01  3.753679e+02
     vertex  1.143000e+01  1.143000e+01  3.753679e+02
   endloop
 endfacet
 facet normal  1.000000e+00 -0.000000e+00  0.000000e+00
   outer loop
     vertex  1.143000e+01 -1.143000e+01  4.421000e+02
     vertex  1.143000e+01  1.143000e+01  3.753679e+02
     vertex  1.143000e+01  1.143000e+01  4.421000e+02
   endloop
 endfacet
 facet normal  0.000000e+00  0.000000e+00  1.000000e+00
   outer loop
     vertex -1.143000e+01  1.143000e+01  3.753679e+02
     vertex  1.143000e+01  3.429000e+01  3.753679e+02
     vertex -1.143000e+01  3.429000e+01  3.753679e+02
   endloop
 endfacet
 facet normal  0.000000e+00 -0.000000e+00  1.000000e+00
   outer loop
     vertex  1.143000e+01  1.143000e+01  3.753679e+02
     vertex  1.143000e+01  3.429000e+01  3.753679e+02
     vertex -1.143000e+01  1.143000e+01  3.753679e+02
   endloop
 endfacet
 facet normal -1.000000e+00  0.000000e+00  0.000000e+00
   outer loop
     vertex -1.143000e+01  1.143000e+01  3.753679e+02
     vertex -1.143000e+01  3.429000e+01  2.085377e+02
     vertex -1.143000e+01  1.143000e+01  2.085377e+02
   endloop
 endfacet
 facet normal -1.000000e+00  0.000000e+00  0.000000e+00
   outer loop
     vertex -1.143000e+01  1.143000e+01  3.753679e+02
     vertex -1.143000e+01  3.429000e+01  3.753679e+02
     vertex -1.143000e+01  3.429000e+01  2.085377e+02
   endloop
 endfacet
 facet normal  0.000000e+00  0.000000e+00  1.000000e+00
   outer loop
     vertex -3.429000e+01  1.143000e+01  2.085377e+02
     vertex -1.143000e+01  3.429000e+01  2.085377e+02
     vertex -3.429000e+01  3.429000e+01  2.085377e+02
   endloop
 endfacet
 facet normal  0.000000e+00 -0.000000e+00  1.000000e+00
   outer loop
     vertex -1.143000e+01  1.143000e+01  2.085377e+02
     vertex -1.143000e+01  3.429000e+01  2.085377e+02
     vertex -3.429000e+01  1.143000e+01  2.085377e+02
   endloop
 endfacet
 facet normal -1.000000e+00  0.000000e+00 -0.000000e+00
   outer loop
     vertex -3.429000e+01  1.143000e+01  2.085377e+02
     vertex -3.429000e+01  3.429000e+01  0.000000e+00
     vertex -3.429000e+01 -3.429000e+01  0.000000e+00
   endloop
 endfacet
 facet normal -1.000000e+00  0.000000e+00  0.000000e+00
   outer loop
     vertex -3.429000e+01  1.143000e+01  2.085377e+02
     vertex -3.429000e+01  3.429000e+01  2.085377e+02
     vertex -3.429000e+01  3.429000e+01  0.000000e+00
   endloop
 endfacet
 facet normal -1.000000e+00  0.000000e+00  0.000000e+00
   outer loop
     vertex -3.429000e+01 -3.429000e+01  2.752698e+02
     vertex -3.429000e+01  1.143000e+01  2.085377e+02
     vertex -3.429000e+01 -3.429000e+01  0.000000e+00
   endloop
 endfacet
 facet normal -1.000000e+00  0.000000e+00  0.000000e+00
   outer loop
     vertex -3.429000e+01 -3.429000e+01  2.752698e+02
     vertex -3.429000e+01 -1.143000e+01  2.752698e+02
     vertex -3.429000e+01  1.143000e+01  2.085377e+02
   endloop
 endfacet
 facet normal -1.000000e+00  0.000000e+00  0.000000e+00
   outer loop
     vertex -3.429000e+01 -1.143000e+01  4.421000e+02
     vertex -3.429000e+01  1.143000e+01  4.421000e+02
     vertex -3.429000e+01 -1.143000e+01  2.752698e+02
   endloop
 endfacet
 facet normal -1.000000e+00  0.000000e+00  0.000000e+00
   outer loop
     vertex -3.429000e+01  1.143000e+01  2.085377e+02
     vertex -3.429000e+01 -1.143000e+01  2.752698e+02
     vertex -3.429000e+01  1.143000e+01  4.421000e+02
   endloop
 endfacet
 facet normal  0.000000e+00 -1.000000e+00 -0.000000e+00
   outer loop
     vertex -1.143000e+01 -1.143000e+01  3.753679e+02
     vertex -3.429000e+01 -1.143000e+01  2.752698e+02
     vertex -1.143000e+01 -1.143000e+01  2.752698e+02
   endloop
 endfacet
 facet normal  0.000000e+00 -1.000000e+00 -0.000000e+00
   outer loop
     vertex  1.143000e+01 -1.143000e+01  4.421000e+02
     vertex -1.143000e+01 -1.143000e+01  3.753679e+02
     vertex  1.143000e+01 -1.143000e+01  3.753679e+02
   endloop
 endfacet
 facet normal  0.000000e+00 -1.000000e+00  0.000000e+00
   outer loop
     vertex -3.429000e+01 -1.143000e+01  4.421000e+02
     vertex -1.143000e+01 -1.143000e+01  3.753679e+02
     vertex  1.143000e+01 -1.143000e+01  4.421000e+02
   endloop
 endfacet
 facet normal  0.000000e+00 -1.000000e+00  0.000000e+00
   outer loop
     vertex -3.429000e+01 -1.143000e+01  4.421000e+02
     vertex -3.429000e+01 -1.143000e+01  2.752698e+02
     vertex -1.143000e+01 -1.143000e+01  3.753679e+02
   endloop
 endfacet
 facet normal  0.000000e+00 -0.000000e+00  1.000000e+00
   outer loop
     vertex  3.429000e+01 -1.143000e+01  3.753679e+02
     vertex  3.429000e+01  1.143000e+01  3.753679e+02
     vertex  1.143000e+01  1.143000e+01  3.753679e+02
   endloop
 endfacet
 facet normal  0.000000e+00  0.000000e+00  1.000000e+00
   outer loop
     vertex  3.429000e+01 -1.143000e+01  3.753679e+02
     vertex  1.143000e+01  1.143000e+01  3.753679e+02
     vertex  1.143000e+01 -1.143000e+01  3.753679e+02
   endloop
 endfacet
 facet normal  0.000000e+00  1.000000e+00  0.000000e+00
   outer loop
     vertex -1.143000e+01  3.429000e+01  2.085377e+02
     vertex  3.429000e+01  3.429000e+01  0.000000e+00
     vertex -3.429000e+01  3.429000e+01  0.000000e+00
   endloop
 endfacet
 facet normal  0.000000e+00  1.000000e+00  0.000000e+00
   outer loop
     vertex  3.429000e+01  3.429000e+01  2.752698e+02
     vertex  3.429000e+01  3.429000e+01  0.000000e+00
     vertex -1.143000e+01  3.429000e+01  2.085377e+02
   endloop
 endfacet
 facet normal -0.000000e+00  1.000000e+00  0.000000e+00
   outer loop
     vertex -3.429000e+01  3.429000e+01  2.085377e+02
     vertex -1.143000e+01  3.429000e+01  2.085377e+02
     vertex -3.429000e+01  3.429000e+01  0.000000e+00
   endloop
 endfacet
 facet normal -0.000000e+00  1.000000e+00  0.000000e+00
   outer loop
     vertex  1.143000e+01  3.429000e+01  2.752698e+02
     vertex  3.429000e+01  3.429000e+01  2.752698e+02
     vertex -1.143000e+01  3.429000e+01  2.085377e+02
   endloop
 endfacet
 facet normal -0.000000e+00  1.000000e+00  0.000000e+00
   outer loop
     vertex -1.143000e+01  3.429000e+01  3.753679e+02
     vertex  1.143000e+01  3.429000e+01  3.753679e+02
     vertex  1.143000e+01  3.429000e+01  2.752698e+02
   endloop
 endfacet
 facet normal  0.000000e+00  1.000000e+00  0.000000e+00
   outer loop
     vertex -1.143000e+01  3.429000e+01  3.753679e+02
     vertex  1.143000e+01  3.429000e+01  2.752698e+02
     vertex -1.143000e+01  3.429000e+01  2.085377e+02
   endloop
 endfacet
 facet normal  1.000000e+00  0.000000e+00  0.000000e+00
   outer loop
     vertex  1.143000e+01  1.143000e+01  3.753679e+02
     vertex  1.143000e+01  1.143000e+01  2.752698e+02
     vertex  1.143000e+01  3.429000e+01  2.752698e+02
   endloop
 endfacet
 facet normal  1.000000e+00 -0.000000e+00  0.000000e+00
   outer loop
     vertex  1.143000e+01  1.143000e+01  3.753679e+02
     vertex  1.143000e+01  3.429000e+01  2.752698e+02
     vertex  1.143000e+01  3.429000e+01  3.753679e+02
   endloop
 endfacet
 facet normal  0.000000e+00  0.000000e+00 -1.000000e+00
   outer loop
     vertex  3.429000e+01 -3.429000e+01  0.000000e+00
     vertex -3.429000e+01  3.429000e+01  0.000000e+00
     vertex  3.429000e+01  3.429000e+01  0.000000e+00
   endloop
 endfacet
 facet normal  0.000000e+00  0.000000e+00 -1.000000e+00
   outer loop
     vertex  3.429000e+01 -3.429000e+01  0.000000e+00
     vertex -3.429000e+01 -3.429000e+01  0.000000e+00
     vertex -3.429000e+01  3.429000e+01  0.000000e+00
   endloop
 endfacet
 facet normal  0.000000e+00  0.000000e+00  1.000000e+00
   outer loop
     vertex -3.429000e+01 -3.429000e+01  2.752698e+02
     vertex -1.143000e+01 -1.143000e+01  2.752698e+02
     vertex -3.429000e+01 -1.143000e+01  2.752698e+02
   endloop
 endfacet
 facet normal  0.000000e+00 -0.000000e+00  1.000000e+00
   outer loop
     vertex -1.143000e+01 -3.429000e+01  2.752698e+02
     vertex -1.143000e+01 -1.143000e+01  2.752698e+02
     vertex -3.429000e+01 -3.429000e+01  2.752698e+02
   endloop
 endfacet
 facet normal  0.000000e+00 -1.000000e+00 -0.000000e+00
   outer loop
     vertex  1.143000e+01 -3.429000e+01  2.085377e+02
     vertex -3.429000e+01 -3.429000e+01  0.000000e+00
     vertex  3.429000e+01 -3.429000e+01  0.000000e+00
   endloop
 endfacet
 facet normal  0.000000e+00 -1.000000e+00  0.000000e+00
   outer loop
     vertex  1.143000e+01 -3.429000e+01  2.085377e+02
     vertex  3.429000e+01 -3.429000e+01  0.000000e+00
     vertex  3.429000e+01 -3.429000e+01  2.085377e+02
   endloop
 endfacet
 facet normal  0.000000e+00 -1.000000e+00  0.000000e+00
   outer loop
     vertex -3.429000e+01 -3.429000e+01  2.752698e+02
     vertex -3.429000e+01 -3.429000e+01  0.000000e+00
     vertex  1.143000e+01 -3.429000e+01  2.085377e+02
   endloop
 endfacet
 facet normal  0.000000e+00 -1.000000e+00  0.000000e+00
   outer loop
     vertex -3.429000e+01 -3.429000e+01  2.752698e+02
     vertex  1.143000e+01 -3.429000e+01  2.085377e+02
     vertex -1.143000e+01 -3.429000e+01  2.752698e+02
   endloop
 endfacet
 facet normal  0.000000e+00 -1.000000e+00  0.000000e+00
   outer loop
     vertex -1.143000e+01 -3.429000e+01  3.753679e+02
     vertex -1.143000e+01 -3.429000e+01  2.752698e+02
     vertex  1.143000e+01 -3.429000e+01  3.753679e+02
   endloop
 endfacet
 facet normal  0.000000e+00 -1.000000e+00  0.000000e+00
   outer loop
     vertex  1.143000e+01 -3.429000e+01  2.085377e+02
     vertex  1.143000e+01 -3.429000e+01  3.753679e+02
     vertex -1.143000e+01 -3.429000e+01  2.752698e+02
   endloop
 endfacet
 facet normal  0.000000e+00  0.000000e+00  1.000000e+00
   outer loop
     vertex -1.143000e+01 -3.429000e+01  3.753679e+02
     vertex  1.143000e+01 -1.143000e+01  3.753679e+02
     vertex -1.143000e+01 -1.143000e+01  3.753679e+02
   endloop
 endfacet
 facet normal  0.000000e+00 -0.000000e+00  1.000000e+00
   outer loop
     vertex  1.143000e+01 -3.429000e+01  3.753679e+02
     vertex  1.143000e+01 -1.143000e+01  3.753679e+02
     vertex -1.143000e+01 -3.429000e+01  3.753679e+02
   endloop
 endfacet
 facet normal -1.000000e+00  0.000000e+00  0.000000e+00
   outer loop
     vertex -1.143000e+01 -3.429000e+01  3.753679e+02
     vertex -1.143000e+01 -1.143000e+01  2.752698e+02
     vertex -1.143000e+01 -3.429000e+01  2.752698e+02
   endloop
 endfacet
 facet normal -1.000000e+00  0.000000e+00  0.000000e+00
   outer loop
     vertex -1.143000e+01 -3.429000e+01  3.753679e+02
     vertex -1.143000e+01 -1.143000e+01  3.753679e+02
     vertex -1.143000e+01 -1.143000e+01  2.752698e+02
   endloop
 endfacet
 facet normal  0.000000e+00  1.000000e+00  0.000000e+00
   outer loop
     vertex  1.143000e+01  1.143000e+01  3.753679e+02
     vertex  3.429000e+01  1.143000e+01  2.752698e+02
     vertex  1.143000e+01  1.143000e+01  2.752698e+02
   endloop
 endfacet
 facet normal -0.000000e+00  1.000000e+00  0.000000e+00
   outer loop
     vertex  1.143000e+01  1.143000e+01  3.753679e+02
     vertex  3.429000e+01  1.143000e+01  3.753679e+02
     vertex  3.429000e+01  1.143000e+01  2.752698e+02
   endloop
 endfacet
 facet normal  1.000000e+00  0.000000e+00  0.000000e+00
   outer loop
     vertex  3.429000e+01 -1.143000e+01  2.085377e+02
     vertex  3.429000e+01 -3.429000e+01  0.000000e+00
     vertex  3.429000e+01  3.429000e+01  0.000000e+00
   endloop
 endfacet
 facet normal  1.000000e+00  0.000000e+00  0.000000e+00
   outer loop
     vertex  3.429000e+01  3.429000e+01  2.752698e+02
     vertex  3.429000e+01 -1.143000e+01  2.085377e+02
     vertex  3.429000e+01  3.429000e+01  0.000000e+00
   endloop
 endfacet
 facet normal  1.000000e+00 -0.000000e+00  0.000000e+00
   outer loop
     vertex  3.429000e+01 -3.429000e+01  2.085377e+02
     vertex  3.429000e+01 -3.429000e+01  0.000000e+00
     vertex  3.429000e+01 -1.143000e+01  2.085377e+02
   endloop
 endfacet
 facet normal  1.000000e+00 -0.000000e+00  0.000000e+00
   outer loop
     vertex  3.429000e+01  1.143000e+01  2.752698e+02
     vertex  3.429000e+01 -1.143000e+01  2.085377e+02
     vertex  3.429000e+01  3.429000e+01  2.752698e+02
   endloop
 endfacet
 facet normal  1.000000e+00 -0.000000e+00  0.000000e+00
   outer loop
     vertex  3.429000e+01 -1.143000e+01  3.753679e+02
     vertex  3.429000e+01  1.143000e+01  2.752698e+02
     vertex  3.429000e+01  1.143000e+01  3.753679e+02
   endloop
 endfacet
 facet normal  1.000000e+00  0.000000e+00  0.000000e+00
   outer loop
     vertex  3.429000e+01 -1.143000e+01  3.753679e+02
     vertex  3.429000e+01 -1.143000e+01  2.085377e+02
     vertex  3.429000e+01  1.143000e+01  2.752698e+02
   endloop
 endfacet
 facet normal  0.000000e+00 -1.000000e+00  0.000000e+00
   outer loop
     vertex  1.143000e+01 -1.143000e+01  3.753679e+02
     vertex  1.143000e+01 -1.143000e+01  2.085377e+02
     vertex  3.429000e+01 -1.143000e+01  2.085377e+02
   endloop
 endfacet
 facet normal  0.000000e+00 -1.000000e+00  0.000000e+00
   outer loop
     vertex  1.143000e+01 -1.143000e+01  3.753679e+02
     vertex  3.429000e+01 -1.143000e+01  2.085377e+02
     vertex  3.429000e+01 -1.143000e+01  3.753679e+02
   endloop
 endfacet
 facet normal  0.000000e+00 -0.000000e+00  1.000000e+00
   outer loop
     vertex  3.429000e+01  1.143000e+01  2.752698e+02
     vertex  3.429000e+01  3.429000e+01  2.752698e+02
     vertex  1.143000e+01  3.429000e+01  2.752698e+02
   endloop
 endfacet
 facet normal  0.000000e+00  0.000000e+00  1.000000e+00
   outer loop
     vertex  3.429000e+01  1.143000e+01  2.752698e+02
     vertex  1.143000e+01  3.429000e+01  2.752698e+02
     vertex  1.143000e+01  1.143000e+01  2.752698e+02
   endloop
 endfacet
 facet normal  0.000000e+00 -0.000000e+00  1.000000e+00
   outer loop
     vertex  3.429000e+01 -3.429000e+01  2.085377e+02
     vertex  3.429000e+01 -1.143000e+01  2.085377e+02
     vertex  1.143000e+01 -1.143000e+01  2.085377e+02
   endloop
 endfacet
 facet normal  0.000000e+00  0.000000e+00  1.000000e+00
   outer loop
     vertex  3.429000e+01 -3.429000e+01  2.085377e+02
     vertex  1.143000e+01 -1.143000e+01  2.085377e+02
     vertex  1.143000e+01 -3.429000e+01  2.085377e+02
   endloop
 endfacet
 facet normal  1.000000e+00  0.000000e+00  0.000000e+00
   outer loop
     vertex  1.143000e+01 -3.429000e+01  3.753679e+02
     vertex  1.143000e+01 -3.429000e+01  2.085377e+02
     vertex  1.143000e+01 -1.143000e+01  2.085377e+02
   endloop
 endfacet
 facet normal  1.000000e+00 -0.000000e+00  0.000000e+00
   outer loop
     vertex  1.143000e+01 -3.429000e+01  3.753679e+02
     vertex  1.143000e+01 -1.143000e+01  2.085377e+02
     vertex  1.143000e+01 -1.143000e+01  3.753679e+02
   endloop
 endfacet
endsolid
