solid building.stl
facet normal 0.0 0.01791963 0.0
  outer loop
    vertex 0.0 0.12 0.111997694
    vertex 0.08 0.12 0.0
    vertex -0.08 0.12 0.0
  endloop
endfacet
facet normal 0.0 0.0063999994 0.0
  outer loop
    vertex 0.0 0.12 0.111997694
    vertex 0.08 0.12 0.08
    vertex 0.08 0.12 0.0
  endloop
endfacet
facet normal -0.0 0.0064 0.0
  outer loop
    vertex -0.08 0.12 0.08
    vertex 0.0 0.12 0.111997694
    vertex -0.08 0.12 0.0
  endloop
endfacet
facet normal -0.019199999 0.0 0.0
  outer loop
    vertex -0.08 -0.12 0.08
    vertex -0.08 0.12 0.0
    vertex -0.08 -0.12 0.0
  endloop
endfacet
facet normal -0.019199999 0.0 0.0
  outer loop
    vertex -0.08 -0.12 0.08
    vertex -0.08 0.12 0.08
    vertex -0.08 0.12 0.0
  endloop
endfacet
facet normal 0.019199999 0.0 0.0
  outer loop
    vertex 0.08 -0.12 0.08
    vertex 0.08 -0.12 0.0
    vertex 0.08 0.12 0.0
  endloop
endfacet
facet normal 0.019199999 -0.0 0.0
  outer loop
    vertex 0.08 -0.12 0.08
    vertex 0.08 0.12 0.0
    vertex 0.08 0.12 0.08
  endloop
endfacet
facet normal 0.0 0.0 -0.038399998
  outer loop
    vertex 0.08 -0.12 0.0
    vertex -0.08 0.12 0.0
    vertex 0.08 0.12 0.0
  endloop
endfacet
facet normal 0.0 0.0 -0.038399998
  outer loop
    vertex 0.08 -0.12 0.0
    vertex -0.08 -0.12 0.0
    vertex -0.08 0.12 0.0
  endloop
endfacet
facet normal 0.0 -0.01791963 -0.0
  outer loop
    vertex 0.0 -0.12 0.111997694
    vertex -0.08 -0.12 0.0
    vertex 0.08 -0.12 0.0
  endloop
endfacet
facet normal 0.0 -0.0063999994 0.0
  outer loop
    vertex 0.0 -0.12 0.111997694
    vertex 0.08 -0.12 0.0
    vertex 0.08 -0.12 0.08
  endloop
endfacet
facet normal 0.0 -0.0064 0.0
  outer loop
    vertex -0.08 -0.12 0.08
    vertex -0.08 -0.12 0.0
    vertex 0.0 -0.12 0.111997694
  endloop
endfacet
facet normal -0.0076794466 0.0 0.019199999
  outer loop
    vertex 0.0 0.12 0.111997694
    vertex -0.08 0.12 0.08
    vertex -0.08 -0.12 0.08
  endloop
endfacet
facet normal -0.0076794466 0.0 0.019199999
  outer loop
    vertex 0.0 0.12 0.111997694
    vertex -0.08 -0.12 0.08
    vertex 0.0 -0.12 0.111997694
  endloop
endfacet
facet normal 0.0076794466 0.0 0.019199999
  outer loop
    vertex 0.08 0.12 0.08
    vertex 0.0 0.12 0.111997694
    vertex 0.0 -0.12 0.111997694
  endloop
endfacet
facet normal 0.0076794466 0.0 0.019199999
  outer loop
    vertex 0.08 0.12 0.08
    vertex 0.0 -0.12 0.111997694
    vertex 0.08 -0.12 0.08
  endloop
endfacet
endsolid building.stl
